<svg xmlns="http://www.w3.org/2000/svg" xmlns:xlink="http://www.w3.org/1999/xlink" version="1.1" x="0px" y="0px" viewBox="0 0 100 125" enable-background="new 0 0 100 100" xml:space="preserve"><g><path fill="#000000" d="M66.619,90.99V79.184h-0.082c-0.295-1.674-4.684-3.082-10.754-3.627l2.457-38.1l0.002-2.702h3.852   c0.42,0.046,0.84,0.012,1.232-0.158c0.932-0.322,1.609-1.151,1.609-2.145c0-0.142-0.062-0.266-0.088-0.4   c0.004-0.055,0.025-0.092,0.025-0.149V23.01c0-4.279-2.516-8.472-7.52-8.472l-14.441-0.006c-4.562,0-7.419,3.72-7.419,8.36v9.009   c0,1.452,0.725,2.352,1.626,2.707c0.325,0.162,0.678,0.272,1.065,0.272h4.004c0,1.378,0,2.319,0,2.319s2.303,36.115,2.445,38.353   c-6.101,0.545-10.51,1.953-10.808,3.631h-0.077v11.804c-3.417,0.957-5.505,2.21-5.505,3.587c0,2.995,9.822,5.426,21.939,5.426   c12.118,0,21.94-2.431,21.94-5.426C72.123,93.197,70.031,91.944,66.619,90.99z M59.834,23.42v6.727h-1.588l0.004-6.727H59.834z    M40.573,30.021v-6.601h1.618c-0.001,0-0.003,3.255-0.003,6.601H40.573z M49.41,34.311l1.628-0.016l-0.031,41.025   c-0.273-0.004-0.547-0.01-0.825-0.01c-0.26,0-0.515,0.006-0.774,0.01L49.41,34.311z"/><ellipse fill="#000000" cx="49.671" cy="6.973" rx="5.921" ry="6.221"/></g><text x="0" y="115" fill="#000000" font-size="5px" font-weight="bold" font-family="'Helvetica Neue', Helvetica, Arial-Unicode, Arial, Sans-serif">Created by Oscar Yáñez</text><text x="0" y="120" fill="#000000" font-size="5px" font-weight="bold" font-family="'Helvetica Neue', Helvetica, Arial-Unicode, Arial, Sans-serif">from the Noun Project</text></svg>